<svg width="355" height="37" viewBox="0 0 355 37" fill="none" xmlns="http://www.w3.org/2000/svg">
<path d="M0 1.38599H13.2736C16.5237 1.38599 18.8875 2.02526 20.3648 3.30381C21.8421 4.58236 22.5853 6.41077 22.5853 8.78458C22.5853 10.2107 22.2137 11.4311 21.475 12.4459C20.7364 13.4607 19.7336 14.1938 18.4622 14.6409C20.1007 15.0119 21.3944 15.754 22.3435 16.8761C23.2926 17.9982 23.7716 19.4555 23.7716 21.2482C23.7716 23.6756 22.9703 25.589 21.3765 26.9838C19.7783 28.383 17.2087 29.0804 13.672 29.0804H0.00447772V1.38599H0ZM11.5321 12.4235C13.0632 12.4235 14.1018 12.1821 14.6435 11.6904C15.1852 11.2031 15.4538 10.5102 15.4538 9.61161C15.4538 8.71305 15.1807 7.99778 14.6435 7.53286C14.1018 7.0724 13.0766 6.83993 11.5724 6.83993H7.13596V12.4191H11.5321V12.4235ZM12.0873 23.622C13.8019 23.622 14.9927 23.3672 15.6552 22.8486C16.3133 22.3345 16.6446 21.5388 16.6446 20.4569C16.6446 19.3751 16.3088 18.5704 15.6329 18.0429C14.9613 17.5154 13.7526 17.2516 12.0067 17.2516H7.13148V23.622H12.0828H12.0873Z" fill="black"/>
<path d="M37.0456 29.5989C35.5638 29.5989 34.1804 29.3799 32.8867 28.9463C31.5929 28.5126 30.4558 27.8465 29.4798 26.948C28.5039 26.0494 27.7384 24.9229 27.1833 23.5638C26.6281 22.2048 26.3506 20.6178 26.3506 18.7983V18.0071C26.3506 16.2949 26.6281 14.7883 27.1833 13.4964C27.7384 12.2044 28.5039 11.1226 29.4798 10.2508C30.4558 9.3791 31.5929 8.72194 32.8867 8.27042C34.1804 7.82338 35.5682 7.59985 37.0456 7.59985C38.5229 7.59985 39.9107 7.82338 41.2045 8.27042C42.4983 8.71747 43.6354 9.3791 44.6113 10.2508C45.5872 11.1226 46.3528 12.2044 46.9079 13.4964C47.463 14.7883 47.7406 16.2949 47.7406 18.0071V18.7983C47.7406 20.591 47.463 22.1691 46.9079 23.5281C46.3528 24.8871 45.5872 26.0136 44.6113 26.9122C43.6354 27.8108 42.4983 28.4813 41.2045 28.9284C39.9107 29.3754 38.5229 29.5989 37.0456 29.5989ZM37.0456 24.5742C38.4737 24.5742 39.566 24.0556 40.336 23.0229C41.1015 21.9858 41.4865 20.5776 41.4865 18.7983V18.0026C41.4865 16.4111 41.1015 15.1147 40.336 14.1178C39.5705 13.1209 38.4737 12.6246 37.0456 12.6246C35.6175 12.6246 34.5207 13.1209 33.7551 14.1178C32.9896 15.1147 32.6046 16.4066 32.6046 18.0026V18.7983C32.6046 20.6312 32.9851 22.0528 33.7551 23.0587C34.5207 24.069 35.6175 24.5742 37.0456 24.5742Z" fill="black"/>
<path d="M51.1099 29.5987C50.8995 29.5987 50.5995 29.5897 50.219 29.5808C49.834 29.5674 49.5385 29.5361 49.3281 29.4825V24.1805C49.458 24.2073 49.6594 24.2207 49.9235 24.2207C50.3712 24.2207 50.7696 24.0821 51.1143 23.805C51.4591 23.5278 51.7501 23.0674 51.9873 22.4191C52.2246 21.7754 52.4037 20.9305 52.5201 19.8889C52.6409 18.8472 52.6991 17.5598 52.6991 16.0309V8.11816H70.1316V29.089H64.0298V13.143H58.4025V16.8534C58.4025 19.4597 58.2458 21.5876 57.928 23.2462C57.6101 24.9047 57.149 26.2056 56.5402 27.1533C55.9313 28.1011 55.1748 28.7448 54.2615 29.089C53.3483 29.4333 52.3007 29.6031 51.1099 29.6031V29.5987Z" fill="black"/>
<path d="M74.0894 8.11401H89.5431V13.1388H80.1912V29.0849H74.0894V8.11401Z" fill="black"/>
<path d="M97.8644 29.5991C96.7273 29.5991 95.72 29.4292 94.8336 29.085C93.9472 28.7408 93.2041 28.2758 92.5952 27.6813C91.9864 27.0867 91.5253 26.3893 91.2074 25.5846C90.8896 24.7799 90.7329 23.9037 90.7329 22.9515C90.7329 20.8683 91.3731 19.2723 92.6534 18.1637C93.9338 17.055 95.8678 16.5007 98.4598 16.5007H104.441V15.6289C104.441 14.3638 104.136 13.4876 103.528 12.9958C102.919 12.5086 102.086 12.2627 101.029 12.2627C99.9729 12.2627 99.288 12.4191 98.809 12.7366C98.3345 13.054 98.0703 13.5546 98.0166 14.2386H91.9148C91.9685 13.2909 92.2058 12.4147 92.6266 11.6055C93.0474 10.8008 93.6518 10.1035 94.4307 9.50888C95.2097 8.91431 96.1677 8.44939 97.3048 8.10516C98.4419 7.76094 99.7491 7.59106 101.226 7.59106C102.601 7.59106 103.863 7.74305 105.009 8.04705C106.16 8.35104 107.14 8.83832 107.959 9.50888C108.779 10.1795 109.41 11.0512 109.862 12.1196C110.31 13.1881 110.534 14.489 110.534 16.0179V23.7339C110.534 24.8425 110.56 25.8126 110.614 26.6397C110.668 27.4712 110.744 28.2803 110.851 29.0716H105.068C105.014 28.6245 104.969 28.2267 104.929 27.8824C104.888 27.5382 104.871 27.118 104.871 26.6173C104.235 27.4622 103.357 28.1685 102.234 28.7363C101.11 29.304 99.6506 29.5857 97.8554 29.5857L97.8644 29.5991ZM99.8476 25.3253C101.141 25.3253 102.229 24.9543 103.116 24.2167C104.002 23.479 104.445 22.4643 104.445 21.1678V20.2961H99.6506C98.7508 20.2961 98.0838 20.533 97.6495 21.0069C97.2153 21.4808 96.9959 22.0351 96.9959 22.6699C96.9959 23.4343 97.2153 24.0691 97.6495 24.5698C98.0838 25.0705 98.8179 25.3209 99.8476 25.3209V25.3253Z" fill="black"/>
<path d="M127.577 21.7575C126.677 21.7575 125.885 21.6055 125.2 21.3015C124.515 20.9975 123.875 20.6622 123.279 20.2912C122.684 19.9201 122.111 19.5848 121.556 19.2808C121.001 18.9769 120.432 18.8249 119.85 18.8249C119.479 18.8249 119.143 18.95 118.838 19.2004C118.534 19.4507 118.279 19.7234 118.064 20.0095C117.8 20.3538 117.576 20.7337 117.392 21.1584L113.31 18.3108C113.704 17.3094 114.232 16.4108 114.894 15.6195C115.423 14.9356 116.117 14.3097 116.976 13.742C117.836 13.1742 118.856 12.8926 120.047 12.8926C120.947 12.8926 121.739 13.0446 122.424 13.3486C123.109 13.6525 123.754 13.9878 124.345 14.3589C124.94 14.7299 125.509 15.0652 126.05 15.3692C126.592 15.6732 127.165 15.8252 127.774 15.8252C128.146 15.8252 128.481 15.7045 128.786 15.4676C129.09 15.2306 129.345 14.9669 129.56 14.6763C129.824 14.3321 130.048 13.9387 130.232 13.4871L134.315 16.3348C133.894 17.363 133.365 18.275 132.73 19.0663C132.175 19.7547 131.476 20.3716 130.63 20.926C129.784 21.4803 128.768 21.7575 127.581 21.7575H127.577Z" fill="black"/>
<path d="M135.898 23.2286H139.067C139.412 22.33 139.694 21.2974 139.918 20.1216C140.142 18.9459 140.321 17.6942 140.451 16.362C140.58 15.0298 140.683 13.6574 140.746 12.2492C140.813 10.8365 140.845 9.45962 140.845 8.11402V1.38599H161.209V23.2286H164.021V34.2259H157.838V29.0804H142.067V34.2259H135.884V23.2286H135.898ZM154.082 23.2286V7.24228H147.506V8.90528C147.506 12.124 147.381 14.9002 147.13 17.2337C146.879 19.5673 146.476 21.5656 145.921 23.2286H154.082Z" fill="black"/>
<path d="M176.905 29.5989C175.423 29.5989 174.04 29.3799 172.746 28.9463C171.452 28.5126 170.315 27.8465 169.339 26.948C168.363 26.0494 167.598 24.9229 167.043 23.5638C166.488 22.2048 166.21 20.6178 166.21 18.7983V18.0071C166.21 16.2949 166.488 14.7883 167.043 13.4964C167.598 12.2044 168.363 11.1226 169.339 10.2508C170.315 9.3791 171.452 8.72194 172.746 8.27042C174.04 7.82338 175.428 7.59985 176.905 7.59985C178.382 7.59985 179.77 7.82338 181.064 8.27042C182.358 8.71747 183.495 9.3791 184.471 10.2508C185.447 11.1226 186.212 12.2044 186.767 13.4964C187.322 14.7883 187.6 16.2949 187.6 18.0071V18.7983C187.6 20.591 187.322 22.1691 186.767 23.5281C186.212 24.8871 185.447 26.0136 184.471 26.9122C183.495 27.8108 182.358 28.4813 181.064 28.9284C179.77 29.3754 178.382 29.5989 176.905 29.5989ZM176.905 24.5742C178.333 24.5742 179.425 24.0556 180.195 23.0229C180.961 21.9858 181.346 20.5776 181.346 18.7983V18.0026C181.346 16.4111 180.961 15.1147 180.195 14.1178C179.43 13.1209 178.333 12.6246 176.905 12.6246C175.477 12.6246 174.38 13.1209 173.615 14.1178C172.849 15.1147 172.464 16.4066 172.464 18.0026V18.7983C172.464 20.6312 172.845 22.0528 173.615 23.0587C174.38 24.069 175.477 24.5742 176.905 24.5742Z" fill="black"/>
<path d="M190.772 8.11401H196.874V15.9105H204.879V8.11401H210.981V29.0849H204.879V20.9353H196.874V29.0849H190.772V8.11401Z" fill="black"/>
<path d="M228.217 21.7575C227.317 21.7575 226.524 21.6055 225.839 21.3015C225.155 20.9975 224.514 20.6622 223.919 20.2912C223.324 19.9201 222.751 19.5848 222.195 19.2808C221.64 18.9769 221.072 18.8249 220.49 18.8249C220.118 18.8249 219.782 18.95 219.478 19.2004C219.174 19.4507 218.918 19.7234 218.704 20.0095C218.439 20.3538 218.216 20.7337 218.032 21.1584L213.949 18.3108C214.343 17.3094 214.871 16.4108 215.534 15.6195C216.062 14.9356 216.756 14.3097 217.616 13.742C218.475 13.1742 219.496 12.8926 220.687 12.8926C221.587 12.8926 222.379 13.0446 223.064 13.3486C223.749 13.6525 224.394 13.9878 224.984 14.3589C225.58 14.7299 226.148 15.0652 226.69 15.3692C227.232 15.6732 227.805 15.8252 228.414 15.8252C228.785 15.8252 229.121 15.7045 229.425 15.4676C229.73 15.2306 229.985 14.9669 230.2 14.6763C230.464 14.3321 230.688 13.9387 230.871 13.4871L234.954 16.3348C234.533 17.363 234.005 18.275 233.369 19.0663C232.814 19.7547 232.116 20.3716 231.27 20.926C230.424 21.4803 229.407 21.7575 228.221 21.7575H228.217Z" fill="black"/>
<path d="M250.6 29.5989C248.697 29.5989 246.956 29.3396 245.371 28.8255C243.786 28.3114 242.434 27.4888 241.31 26.3533C240.187 25.2178 239.309 23.756 238.674 21.9633C238.038 20.1707 237.725 17.9802 237.725 15.3962V14.6452C237.725 12.2178 238.056 10.1345 238.714 8.39551C239.372 6.65651 240.285 5.23044 241.449 4.12177C242.613 3.01309 243.979 2.195 245.55 1.66749C247.121 1.13998 248.805 0.876221 250.6 0.876221C252.211 0.876221 253.725 1.05951 255.135 1.43056C256.549 1.8016 257.789 2.37829 258.859 3.16956C259.929 3.96083 260.802 4.98903 261.474 6.25417C262.145 7.51931 262.548 9.06162 262.683 10.8856H255.314C255.179 10.1479 254.969 9.52207 254.678 9.00797C254.387 8.49387 254.029 8.07365 253.608 7.74283C253.187 7.41202 252.717 7.17509 252.202 7.03203C251.688 6.88898 251.15 6.81298 250.6 6.81298C249.807 6.81298 249.073 6.95156 248.402 7.22873C247.73 7.5059 247.148 7.95294 246.66 8.57434C246.172 9.19573 245.787 10.0049 245.51 11.0063C245.232 12.0076 245.093 13.2236 245.093 14.6452V15.4767C245.093 17.0056 245.246 18.2931 245.55 19.3347C245.854 20.3763 246.257 21.2212 246.759 21.865C247.26 22.5132 247.842 22.9737 248.5 23.2508C249.158 23.528 249.861 23.6666 250.6 23.6666C251.947 23.6666 253.022 23.3447 253.828 22.6965C254.633 22.0527 255.13 21.0156 255.314 19.5895H262.683C262.575 21.4358 262.199 22.9915 261.554 24.2567C260.905 25.5218 260.05 26.55 258.98 27.3413C257.91 28.1326 256.661 28.7048 255.238 29.0624C253.81 29.42 252.265 29.5944 250.6 29.5944V29.5989Z" fill="black"/>
<path d="M271.322 13.1388H264.862V8.11401H283.879V13.1388H277.419V29.0849H271.317V13.1388H271.322Z" fill="black"/>
<path d="M286.654 8.11396H292.282V10.9616C292.546 10.5414 292.881 10.1257 293.293 9.71438C293.701 9.30757 294.184 8.94099 294.739 8.62806C295.294 8.31066 295.912 8.06031 296.602 7.87703C297.287 7.69374 298.03 7.59985 298.822 7.59985C301.781 7.59985 304.024 8.4716 305.56 10.2106C307.091 11.9496 307.856 14.5514 307.856 18.0071V18.7983C307.856 20.591 307.646 22.1601 307.221 23.5057C306.8 24.8513 306.191 25.9734 305.398 26.8675C304.606 27.7661 303.657 28.4456 302.547 28.906C301.437 29.3665 300.196 29.5989 298.822 29.5989C297.631 29.5989 296.503 29.3262 295.433 28.7898C294.363 28.2489 293.472 27.4665 292.761 26.4339V36.9975H286.659V8.11396H286.654ZM297.354 24.5742C298.567 24.5742 299.579 24.0869 300.385 23.1123C301.19 22.1378 301.593 20.6983 301.593 18.7983V18.0071C301.593 16.1876 301.204 14.8375 300.425 13.9524C299.646 13.0672 298.621 12.6246 297.354 12.6246C296.087 12.6246 294.968 13.027 294.086 13.8317C293.199 14.6363 292.761 15.83 292.761 17.4125V19.3929C292.761 21.0559 293.204 22.3345 294.086 23.233C294.972 24.1316 296.06 24.5786 297.354 24.5786V24.5742Z" fill="black"/>
<path d="M320.928 29.5989C319.446 29.5989 318.063 29.3799 316.769 28.9463C315.475 28.5126 314.338 27.8465 313.362 26.948C312.386 26.0494 311.621 24.9229 311.066 23.5638C310.51 22.2048 310.233 20.6178 310.233 18.7983V18.0071C310.233 16.2949 310.51 14.7883 311.066 13.4964C311.621 12.2044 312.386 11.1226 313.362 10.2508C314.338 9.3791 315.475 8.72194 316.769 8.27042C318.063 7.82338 319.451 7.59985 320.928 7.59985C322.405 7.59985 323.793 7.82338 325.087 8.27042C326.381 8.71747 327.518 9.3791 328.494 10.2508C329.47 11.1226 330.235 12.2044 330.79 13.4964C331.345 14.7883 331.623 16.2949 331.623 18.0071V18.7983C331.623 20.591 331.345 22.1691 330.79 23.5281C330.235 24.8871 329.47 26.0136 328.494 26.9122C327.518 27.8108 326.381 28.4813 325.087 28.9284C323.793 29.3754 322.405 29.5989 320.928 29.5989ZM320.928 24.5742C322.356 24.5742 323.448 24.0556 324.218 23.0229C324.984 21.9858 325.369 20.5776 325.369 18.7983V18.0026C325.369 16.4111 324.984 15.1147 324.218 14.1178C323.453 13.1209 322.356 12.6246 320.928 12.6246C319.5 12.6246 318.403 13.1209 317.637 14.1178C316.872 15.1147 316.487 16.4066 316.487 18.0026V18.7983C316.487 20.6312 316.867 22.0528 317.637 23.0587C318.403 24.069 319.5 24.5742 320.928 24.5742Z" fill="black"/>
<path d="M334.792 8.11387H340.737V20.7742L349.65 8.11387H355V29.0847H349.054V16.4244L340.141 29.0847H334.792V8.11387ZM344.896 5.93675C342.308 5.93675 340.473 5.44054 339.389 4.45257C338.306 3.4646 337.764 1.98041 337.764 0H343.154C343.154 0.89856 343.297 1.51548 343.588 1.85971C343.879 2.20393 344.314 2.37381 344.896 2.37381C345.478 2.37381 345.912 2.20393 346.203 1.85971C346.494 1.51548 346.637 0.89856 346.637 0H352.027C352.027 1.98041 351.485 3.46013 350.402 4.45257C349.319 5.44054 347.483 5.93675 344.896 5.93675Z" fill="black"/>
</svg>
