<svg width="132" height="116" viewBox="0 0 132 116" fill="none" xmlns="http://www.w3.org/2000/svg">
<path d="M5.41504 0H19.8147C23.3414 0 25.9037 0.695747 27.5063 2.08245C29.1089 3.47395 29.915 5.45563 29.915 8.0371C29.915 9.58215 29.512 10.9113 28.7106 12.0149C27.9093 13.1185 26.8201 13.915 25.443 14.3996C27.2184 14.8027 28.6243 15.6088 29.6559 16.8275C30.6875 18.0463 31.2009 19.6297 31.2009 21.5778C31.2009 24.2121 30.3325 26.2897 28.6003 27.8108C26.8681 29.3318 24.0803 30.09 20.2417 30.09H5.41504V0.00480296V0ZM17.9241 11.9909C19.5843 11.9909 20.7119 11.727 21.2973 11.1944C21.8827 10.6666 22.1802 9.91323 22.1802 8.93918C22.1802 7.96513 21.8875 7.18301 21.2973 6.68399C20.7119 6.18497 19.5987 5.93066 17.9673 5.93066H13.1547V11.9909H17.9241ZM18.5239 24.1545C20.3856 24.1545 21.6764 23.8762 22.3913 23.3148C23.1063 22.7582 23.4661 21.8897 23.4661 20.7141C23.4661 19.5386 23.1015 18.6653 22.3721 18.0943C21.6428 17.5233 20.3329 17.2354 18.4375 17.2354H13.1498V24.1545H18.5239Z" fill="black"/>
<path d="M45.6002 30.6464C43.9928 30.6464 42.4909 30.4112 41.085 29.9362C39.6791 29.4612 38.4508 28.7415 37.3903 27.7674C36.3299 26.7934 35.4998 25.5698 34.8952 24.0919C34.2955 22.6189 33.9932 20.8915 33.9932 18.9146V18.0557C33.9932 16.194 34.2955 14.5578 34.8952 13.1567C35.495 11.7556 36.3299 10.58 37.3903 9.62994C38.4508 8.68468 39.6839 7.96973 41.085 7.48031C42.4861 6.99568 43.9928 6.75098 45.6002 6.75098C47.2076 6.75098 48.7095 6.99568 50.1154 7.48031C51.5212 7.96973 52.7496 8.68468 53.81 9.62994C54.8704 10.5752 55.7005 11.7508 56.3051 13.1567C56.9049 14.5626 57.2072 16.194 57.2072 18.0557V18.9146C57.2072 20.8627 56.9049 22.5757 56.3051 24.0487C55.7053 25.5266 54.8704 26.7502 53.81 27.7242C52.7496 28.6983 51.5165 29.4276 50.1154 29.917C48.7095 30.4017 47.2076 30.6464 45.6002 30.6464ZM45.6002 25.1859C47.1452 25.1859 48.3352 24.6245 49.1701 23.4969C50.0002 22.3741 50.4177 20.8435 50.4177 18.9098V18.0461C50.4177 16.3139 50.0002 14.908 49.1701 13.8284C48.34 12.7488 47.15 12.2066 45.6002 12.2066C44.0503 12.2066 42.8652 12.7488 42.0303 13.8284C41.2002 14.9128 40.7827 16.3187 40.7827 18.0461V18.9098C40.7827 20.9011 41.1954 22.4413 42.0303 23.5401C42.8604 24.6341 44.0503 25.1859 45.6002 25.1859Z" fill="black"/>
<path d="M60.8589 30.6467C60.6286 30.6467 60.3071 30.6371 59.8897 30.6227C59.4722 30.6083 59.1507 30.5747 58.9204 30.5171V24.7592C59.0644 24.788 59.2803 24.8024 59.5634 24.8024C60.048 24.8024 60.4798 24.6536 60.8541 24.3513C61.2284 24.049 61.5403 23.55 61.7994 22.8447C62.0585 22.1441 62.2504 21.2276 62.38 20.0953C62.5095 18.9629 62.5719 17.5666 62.5719 15.9064V7.30786H81.4819V30.09H74.8651V12.7683H68.7617V16.7988C68.7617 19.6298 68.5889 21.9426 68.2483 23.7467C67.9076 25.5509 67.4037 26.9616 66.7416 27.9932C66.0842 29.02 65.2589 29.7206 64.2705 30.0948C63.282 30.4691 62.1448 30.6514 60.8541 30.6514L60.8589 30.6467Z" fill="black"/>
<path d="M85.7856 7.30786H102.551V12.7683H92.4073V30.09H85.7856V7.30786Z" fill="black"/>
<path d="M111.577 30.6467C110.344 30.6467 109.25 30.4596 108.29 30.0901C107.331 29.7158 106.52 29.2072 105.862 28.5642C105.205 27.9213 104.701 27.1583 104.356 26.2851C104.01 25.4118 103.842 24.4569 103.842 23.4253C103.842 21.1605 104.538 19.4283 105.925 18.224C107.316 17.0196 109.413 16.4198 112.22 16.4198H118.712V15.4746C118.712 14.0974 118.381 13.1474 117.724 12.6148C117.066 12.087 116.159 11.8183 115.017 11.8183C113.875 11.8183 113.127 11.991 112.609 12.3317C112.095 12.6772 111.807 13.2194 111.75 13.9631H105.128C105.186 12.9315 105.445 11.9814 105.901 11.1033C106.357 10.23 107.009 9.47191 107.858 8.82415C108.703 8.18118 109.744 7.67257 110.973 7.2983C112.206 6.92404 113.621 6.7417 115.229 6.7417C116.716 6.7417 118.088 6.90484 119.331 7.23592C120.579 7.567 121.644 8.09481 122.532 8.82415C123.419 9.55348 124.105 10.4987 124.595 11.6599C125.079 12.8211 125.324 14.2318 125.324 15.892V24.2746C125.324 25.4789 125.353 26.5298 125.411 27.4318C125.468 28.3339 125.554 29.2168 125.67 30.0757H119.393C119.336 29.5911 119.288 29.1592 119.245 28.785C119.202 28.4107 119.182 27.9549 119.182 27.4079C118.496 28.3243 117.541 29.092 116.323 29.7062C115.104 30.3204 113.52 30.6323 111.572 30.6323L111.577 30.6467ZM113.727 26.0068C115.128 26.0068 116.313 25.6037 117.273 24.8024C118.232 24.0011 118.712 22.8975 118.712 21.4916V20.5463H113.511C112.537 20.5463 111.812 20.8054 111.342 21.3188C110.867 21.8323 110.632 22.4368 110.632 23.123C110.632 23.9531 110.867 24.644 111.342 25.1863C111.817 25.7333 112.609 26.002 113.727 26.002V26.0068Z" fill="black"/>
<path d="M15.4696 57.3316C14.4956 57.3316 13.6367 57.1685 12.893 56.8374C12.1492 56.5063 11.4535 56.1417 10.8105 55.7434C10.1675 55.3403 9.54376 54.9757 8.93918 54.6494C8.3394 54.3183 7.72042 54.1552 7.09184 54.1552C6.68879 54.1552 6.32412 54.2895 5.99784 54.563C5.66676 54.8365 5.38846 55.1292 5.15814 55.4459C4.87024 55.8202 4.62554 56.2328 4.42881 56.6935L0 53.5986C0.431844 52.5094 1.00284 51.5353 1.71778 50.6764C2.28878 49.9327 3.0421 49.2513 3.97297 48.6324C4.90383 48.0182 6.01703 47.7063 7.30297 47.7063C8.27702 47.7063 9.13591 47.8694 9.87965 48.2005C10.6234 48.5316 11.3191 48.8963 11.9669 49.2945C12.6099 49.6976 13.2288 50.0622 13.8142 50.3885C14.3996 50.7196 15.0234 50.8828 15.6855 50.8828C16.0886 50.8828 16.4533 50.7532 16.7796 50.4941C17.1106 50.235 17.3889 49.9519 17.6193 49.6352C17.9071 49.2609 18.1471 48.8339 18.3486 48.3445L22.7774 51.4394C22.3168 52.5574 21.7458 53.5458 21.0596 54.4047C20.4598 55.1484 19.6969 55.825 18.7804 56.4247C17.864 57.0245 16.7604 57.3268 15.4696 57.3268V57.3316Z" fill="black"/>
<path d="M24.4951 58.9247H27.9355C28.3049 57.9507 28.6168 56.8279 28.8615 55.5515C29.1063 54.2752 29.2982 52.9173 29.4421 51.4682C29.5861 50.0239 29.6916 48.5317 29.7636 46.9962C29.8356 45.4656 29.8692 43.9637 29.8692 42.505V35.1973H51.9604V58.9247H55.0121V70.8724H48.3089V65.2824H31.2031V70.8724H24.4999V58.9247H24.4951ZM44.2256 58.9247V41.5598H37.0906V43.3639C37.0906 46.8619 36.9562 49.8752 36.6827 52.4135C36.4092 54.9517 35.9726 57.1206 35.3728 58.9247H44.2256Z" fill="black"/>
<path d="M68.9796 65.8439C67.3722 65.8439 65.8703 65.6088 64.4644 65.1337C63.0585 64.6587 61.8302 63.939 60.7697 62.9649C59.7093 61.9909 58.8792 60.7673 58.2746 59.2894C57.6749 57.8164 57.3726 56.089 57.3726 54.1121V53.2532C57.3726 51.3915 57.6749 49.7553 58.2746 48.3542C58.8744 46.9531 59.7093 45.7775 60.7697 44.8274C61.8302 43.8822 63.0633 43.1672 64.4644 42.6778C65.8655 42.1932 67.3722 41.9485 68.9796 41.9485C70.587 41.9485 72.0889 42.1932 73.4948 42.6778C74.9006 43.1672 76.129 43.8822 77.1894 44.8274C78.2498 45.7727 79.0799 46.9483 79.6845 48.3542C80.2843 49.7601 80.5866 51.3915 80.5866 53.2532V54.1121C80.5866 56.0602 80.2843 57.7732 79.6845 59.2462C79.0847 60.7241 78.2498 61.9477 77.1894 62.9217C76.129 63.8958 74.8958 64.6251 73.4948 65.1145C72.0889 65.5992 70.587 65.8439 68.9796 65.8439ZM68.9796 60.3834C70.5246 60.3834 71.7146 59.822 72.5495 58.6944C73.3796 57.5717 73.797 56.041 73.797 54.1073V53.2436C73.797 51.5114 73.3796 50.1055 72.5495 49.0259C71.7194 47.9463 70.5294 47.4041 68.9796 47.4041C67.4297 47.4041 66.2446 47.9463 65.4097 49.0259C64.5796 50.1103 64.1621 51.5162 64.1621 53.2436V54.1073C64.1621 56.0986 64.5748 57.6388 65.4097 58.7376C66.2398 59.8316 67.4297 60.3834 68.9796 60.3834Z" fill="black"/>
<path d="M84.0225 42.5051H90.6441V50.9741H99.3242V42.5051H105.941V65.2873H99.3242V56.4345H90.6441V65.2873H84.0225V42.5051Z" fill="black"/>
<path d="M124.64 57.3316C123.666 57.3316 122.807 57.1685 122.063 56.8374C121.32 56.5063 120.624 56.1417 119.981 55.7434C119.338 55.3403 118.714 54.9757 118.11 54.6494C117.51 54.3183 116.891 54.1552 116.262 54.1552C115.859 54.1552 115.495 54.2895 115.168 54.563C114.837 54.8365 114.559 55.1292 114.329 55.4459C114.041 55.8202 113.796 56.2328 113.599 56.6935L109.17 53.5986C109.602 52.5094 110.173 51.5353 110.888 50.6764C111.459 49.9327 112.213 49.2513 113.143 48.6324C114.074 48.0182 115.187 47.7063 116.473 47.7063C117.447 47.7063 118.306 47.8694 119.05 48.2005C119.794 48.5316 120.49 48.8963 121.137 49.2945C121.78 49.6976 122.399 50.0622 122.985 50.3885C123.57 50.7196 124.194 50.8828 124.856 50.8828C125.259 50.8828 125.624 50.7532 125.95 50.4941C126.281 50.235 126.559 49.9519 126.79 49.6352C127.078 49.2609 127.317 48.8339 127.519 48.3445L131.948 51.4394C131.487 52.5574 130.916 53.5458 130.23 54.4047C129.63 55.1484 128.867 55.825 127.951 56.4247C127.034 57.0245 125.931 57.3268 124.64 57.3268V57.3316Z" fill="black"/>
<path d="M15.7729 107.963C13.7097 107.963 11.8192 107.685 10.1014 107.123C8.3836 106.567 6.91533 105.669 5.69657 104.436C4.47781 103.203 3.52775 101.615 2.8368 99.6668C2.15065 97.7187 1.80518 95.3387 1.80518 92.5318V91.716C1.80518 89.0818 2.16504 86.817 2.87998 84.9265C3.59493 83.036 4.58337 81.4861 5.84532 80.2866C7.10726 79.0822 8.58993 78.1945 10.2933 77.6235C11.9967 77.0525 13.8248 76.7646 15.7729 76.7646C17.5195 76.7646 19.1605 76.9662 20.696 77.3644C22.2266 77.7675 23.5749 78.396 24.7361 79.2549C25.8973 80.1138 26.8426 81.2318 27.5719 82.6089C28.3012 83.986 28.7379 85.6606 28.8818 87.6375H20.8879C20.744 86.8362 20.5136 86.1549 20.2017 85.5983C19.8851 85.0417 19.5012 84.581 19.0406 84.2212C18.5799 83.8613 18.0713 83.607 17.5147 83.4486C16.9581 83.2903 16.3775 83.2135 15.7729 83.2135C14.9141 83.2135 14.1175 83.3623 13.3882 83.6645C12.6589 83.9668 12.0255 84.4515 11.4977 85.128C10.9651 85.7998 10.5524 86.6827 10.2501 87.7719C9.94784 88.8611 9.7991 90.1806 9.7991 91.7257V92.6277C9.7991 94.2879 9.96224 95.689 10.2933 96.8166C10.6244 97.949 11.061 98.8655 11.6032 99.566C12.1454 100.267 12.7788 100.77 13.4938 101.073C14.2087 101.375 14.9668 101.524 15.7729 101.524C17.2364 101.524 18.4024 101.173 19.2757 100.473C20.149 99.7723 20.6864 98.6448 20.8879 97.0997H28.8818C28.7667 99.1054 28.3588 100.794 27.6583 102.171C26.9577 103.549 26.0268 104.667 24.8657 105.525C23.7045 106.384 22.3514 107.008 20.8063 107.397C19.2613 107.785 17.5819 107.977 15.7777 107.977L15.7729 107.963Z" fill="black"/>
<path d="M38.253 90.0798H31.2476V84.6194H51.8801V90.0798H44.8746V107.402H38.2578V90.0798H38.253Z" fill="black"/>
<path d="M54.8882 84.6237H60.9916V87.7186C61.2795 87.2628 61.6441 86.807 62.0856 86.3655C62.527 85.9193 63.0548 85.5258 63.6546 85.1851C64.2544 84.8397 64.931 84.571 65.6747 84.3694C66.4184 84.1679 67.2197 84.0671 68.0834 84.0671C71.2935 84.0671 73.7262 85.0124 75.3912 86.9029C77.0514 88.7934 77.8863 91.6148 77.8863 95.3719V96.2308C77.8863 98.1789 77.656 99.8822 77.2001 101.346C76.7395 102.809 76.0821 104.023 75.2233 104.997C74.3644 105.971 73.3327 106.71 72.1284 107.209C70.924 107.708 69.5757 107.963 68.0882 107.963C66.7975 107.963 65.5739 107.67 64.4128 107.08C63.2516 106.494 62.2871 105.64 61.5098 104.522V116H54.8882V84.6237ZM66.4952 102.502C67.8147 102.502 68.9087 101.974 69.782 100.914C70.6553 99.8535 71.092 98.294 71.092 96.2308V95.3719C71.092 93.395 70.6697 91.9267 69.8252 90.9671C68.9807 90.0074 67.8675 89.5276 66.4952 89.5276C65.1229 89.5276 63.9089 89.9642 62.9493 90.8375C61.9896 91.7108 61.5098 93.0063 61.5098 94.7289V96.8785C61.5098 98.6827 61.9896 100.074 62.9493 101.048C63.9089 102.022 65.0893 102.512 66.4952 102.512V102.502Z" fill="black"/>
<path d="M92.0655 107.963C90.4581 107.963 88.9562 107.727 87.5503 107.252C86.1444 106.777 84.9161 106.058 83.8557 105.084C82.7952 104.11 81.9652 102.886 81.3606 101.408C80.7608 99.935 80.4585 98.2076 80.4585 96.2308V95.3719C80.4585 93.5101 80.7608 91.8739 81.3606 90.4728C81.9604 89.0717 82.7952 87.8962 83.8557 86.9461C84.9161 86.0008 86.1492 85.2859 87.5503 84.7965C88.9514 84.3119 90.4581 84.0671 92.0655 84.0671C93.6729 84.0671 95.1748 84.3119 96.5807 84.7965C97.9866 85.2859 99.2149 86.0008 100.275 86.9461C101.336 87.8914 102.166 89.0669 102.77 90.4728C103.37 91.8787 103.673 93.5101 103.673 95.3719V96.2308C103.673 98.1789 103.37 99.8918 102.77 101.365C102.171 102.843 101.336 104.066 100.275 105.04C99.2149 106.014 97.9818 106.744 96.5807 107.233C95.1748 107.718 93.6729 107.963 92.0655 107.963ZM92.0655 102.502C93.6106 102.502 94.8005 101.941 95.6354 100.813C96.4655 99.6903 96.883 98.1597 96.883 96.226V95.3623C96.883 93.6301 96.4655 92.2242 95.6354 91.1446C94.8053 90.065 93.6154 89.5228 92.0655 89.5228C90.5157 89.5228 89.3305 90.065 88.4956 91.1446C87.6655 92.229 87.248 93.6349 87.248 95.3623V96.226C87.248 98.2173 87.6607 99.7575 88.4956 100.856C89.3257 101.95 90.5157 102.502 92.0655 102.502Z" fill="black"/>
<path d="M107.108 84.6242H113.557V98.3809L123.225 84.6242H129.026V107.406H122.577V93.6498L112.904 107.406H107.103V84.6242H107.108ZM118.067 82.2587C115.26 82.2587 113.269 81.7213 112.093 80.6465C110.918 79.5717 110.332 77.9594 110.332 75.8098H116.177C116.177 76.7839 116.335 77.4556 116.652 77.8299C116.968 78.2041 117.438 78.3865 118.072 78.3865C118.705 78.3865 119.175 78.1993 119.492 77.8299C119.809 77.4556 119.967 76.7839 119.967 75.8098H125.811C125.811 77.9594 125.226 79.5717 124.051 80.6465C122.875 81.7213 120.884 82.2587 118.077 82.2587H118.067Z" fill="black"/>
</svg>
