<svg width="95" height="40" viewBox="0 0 95 40" fill="none" xmlns="http://www.w3.org/2000/svg">
<path d="M64.5207 40C60.4582 40 56.8759 39.322 53.7739 37.9462C50.672 36.5703 47.7702 35.0548 45.0885 33.3998C42.4068 31.7248 39.8051 30.2094 37.2836 28.8534C34.782 27.4776 32.2003 26.7996 29.5787 26.7996C27.8976 26.7996 26.3767 27.3579 25.0158 28.4945C23.6349 29.6311 22.4742 30.8475 21.5136 32.1635C20.3128 33.7189 19.2922 35.4337 18.4717 37.348L0 24.4865C1.80114 19.9601 4.18261 15.9123 7.1645 12.343C9.546 9.25225 12.688 6.42072 16.5705 3.84844C20.4529 1.2961 25.0959 0 30.4592 0C34.5218 0 38.1041 0.677964 41.206 2.05384C44.308 3.42971 47.2098 4.94516 49.9115 6.6002C52.5932 8.27517 55.1749 9.79062 57.6164 11.1466C60.0579 12.5224 62.6596 13.2004 65.4213 13.2004C67.1024 13.2004 68.6233 12.662 69.9842 11.5852C71.3651 10.5085 72.5258 9.33198 73.4864 8.01593C74.6872 6.4606 75.6878 4.68592 76.5283 2.65202L95 15.5135C93.0788 20.1595 90.6973 24.2672 87.8355 27.8365C85.3339 30.9272 82.1519 33.7388 78.3295 36.2313C74.5071 38.7238 69.9041 39.98 64.5207 39.98V40Z" fill="black"/>
</svg>
