<svg width="151" height="135" viewBox="0 0 151 135" fill="none" xmlns="http://www.w3.org/2000/svg">
<path d="M62.3262 15.9989C61.1712 15.9989 60.1526 15.8278 59.2691 15.4858C58.3855 15.1437 57.5632 14.7642 56.7987 14.3472C56.0341 13.9313 55.2961 13.5517 54.5823 13.2087C53.8697 12.8666 53.1387 12.6956 52.3914 12.6956C51.9156 12.6956 51.4825 12.8372 51.0921 13.1196C50.7018 13.403 50.3703 13.7076 50.0989 14.0345C49.7593 14.4211 49.4695 14.8532 49.2327 15.3289L43.9858 12.1146C44.4952 10.9842 45.1743 9.97215 46.0231 9.07953C46.7022 8.30632 47.5938 7.59891 48.698 6.9593C49.8009 6.31968 51.1175 5.99988 52.6467 5.99988C53.8005 5.99988 54.8203 6.17193 55.7026 6.51298C56.5861 6.85505 57.4096 7.23457 58.1742 7.65153C58.9387 8.06849 59.6675 8.44801 60.3639 8.79008C61.0604 9.13215 61.7984 9.30319 62.5802 9.30319C63.0549 9.30319 63.488 9.1696 63.8795 8.90141C64.2699 8.63322 64.6002 8.33669 64.8728 8.00878C65.2123 7.62218 65.5011 7.17587 65.739 6.66985L70.9858 9.8841C70.4419 11.0449 69.7639 12.0711 68.9485 12.9648C68.2348 13.739 67.3351 14.4383 66.2483 15.0627C65.1615 15.6882 63.8541 15.9999 62.3262 15.9999V15.9989Z" fill="#FBBF46"/>
<rect width="33.7769" height="13.4036" rx="6.70178" transform="matrix(-0.707586 0.706627 -0.707586 -0.706627 113 51.5746)" stroke="#FBBF46" stroke-width="5.99922"/>
<rect width="37.5299" height="13.4036" rx="6.70178" transform="matrix(-0.707586 0.706627 -0.707586 -0.706627 106.171 39.4515)" stroke="#FBBF46" stroke-width="5.99922"/>
<rect width="37.5299" height="13.4036" rx="6.70178" transform="matrix(-0.707586 0.706627 -0.707586 -0.706627 96.687 29.98)" stroke="#FBBF46" stroke-width="5.99922"/>
<rect width="40.2106" height="13.4036" rx="6.70178" transform="matrix(-0.707586 0.706627 -0.707586 -0.706627 89.0996 18.6145)" stroke="#FBBF46" stroke-width="5.99922"/>
<path d="M22.814 54.4164L15.2262 46.8389C12.6073 44.2235 8.36106 44.2235 5.74208 46.8389V46.8389C3.1231 49.4544 3.1231 53.6948 5.74208 56.3102L42.8474 93.3653C47.6612 98.1726 56.8197 99.0377 62.0324 99.1123C64.4991 99.1476 66.9206 100.022 68.665 101.764C72.4594 105.553 79.4856 112.57 85.2313 118.308" stroke="#FBBF46" stroke-width="5.99922"/>
<path d="M66.1855 99.2733C61.3718 104.081 52.2133 104.946 47.0006 105.02C44.5339 105.056 42.1106 105.932 40.3662 107.674C38.756 109.282 36.3028 111.732 32.6685 115.361" stroke="#FBBF46" stroke-width="5.99922"/>
<path d="M23.936 55.5364L12.5712 44.187C9.9522 41.5715 9.9522 37.3311 12.5712 34.7156V34.7156C15.1902 32.1002 19.4364 32.1002 22.0554 34.7156L32.6543 45.3002" stroke="#FBBF46" stroke-width="5.99922"/>
<path d="M33.1984 45.8439L22.0551 34.7156C19.4361 32.1002 19.4361 27.8598 22.0551 25.2443V25.2443C24.674 22.6289 28.9203 22.6289 31.5392 25.2443L41.3025 34.9944" stroke="#FBBF46" stroke-width="5.99922"/>
<path d="M42.5794 36.2696L29.6425 23.3502C27.0235 20.7347 27.0235 16.4943 29.6425 13.8788V13.8788C32.2615 11.2634 36.5077 11.2634 39.1266 13.8788L56.9178 31.6459" stroke="#FBBF46" stroke-width="5.99922"/>
<path d="M93.8154 69.686L110.447 86.2952" stroke="#FBBF46" stroke-width="5.99922"/>
<path d="M20.5825 71.8291L3.95086 88.4382" stroke="#FBBF46" stroke-width="5.99922"/>
</svg>
