<svg width="135" height="135" viewBox="0 0 135 135" fill="none" xmlns="http://www.w3.org/2000/svg">
<path d="M56.5294 90.3831C55.2469 90.3831 54.1157 90.1778 53.1346 89.7673C52.1535 89.3569 51.2404 88.9014 50.3914 88.4011C49.5424 87.9019 48.7229 87.4465 47.9303 87.0348C47.139 86.6243 46.3272 86.4191 45.4975 86.4191C44.9691 86.4191 44.4882 86.5891 44.0547 86.9279C43.6212 87.268 43.2531 87.6335 42.9517 88.0258C42.5747 88.4897 42.2528 89.0083 41.9899 89.5791L36.1636 85.722C36.7291 84.3655 37.4832 83.151 38.4259 82.0799C39.18 81.152 40.17 80.3031 41.3961 79.5356C42.6209 78.768 44.0829 78.3843 45.7809 78.3843C47.0621 78.3843 48.1945 78.5907 49.1743 79C50.1554 79.4105 51.0698 79.8659 51.9188 80.3663C52.7678 80.8666 53.5771 81.322 54.3504 81.7325C55.1238 82.143 55.9433 82.3482 56.8115 82.3482C57.3386 82.3482 57.8195 82.1879 58.2543 81.8661C58.6878 81.5443 59.0546 81.1884 59.3572 80.795C59.7343 80.331 60.0549 79.7955 60.3191 79.1882L66.1454 83.0453C65.5413 84.4383 64.7885 85.6698 63.8831 86.7421C63.0905 87.6712 62.0915 88.5104 60.8847 89.2597C59.6778 90.0102 58.2261 90.3843 56.5294 90.3843V90.3831Z" fill="#FBBF46"/>
<path d="M56.5294 105.46C55.2469 105.46 54.1157 105.255 53.1346 104.844C52.1535 104.434 51.2404 103.979 50.3914 103.478C49.5424 102.979 48.7229 102.524 47.9303 102.112C47.139 101.701 46.3272 101.496 45.4975 101.496C44.9691 101.496 44.4882 101.666 44.0547 102.005C43.6212 102.345 43.2531 102.711 42.9517 103.103C42.5747 103.567 42.2528 104.085 41.9899 104.656L36.1636 100.799C36.7291 99.4426 37.4832 98.2281 38.4259 97.157C39.18 96.2292 40.17 95.3803 41.3961 94.6127C42.6209 93.8452 44.0829 93.4614 45.7809 93.4614C47.0621 93.4614 48.1945 93.6679 49.1743 94.0772C50.1554 94.4876 51.0698 94.9431 51.9188 95.4434C52.7678 95.9438 53.5771 96.3992 54.3504 96.8097C55.1238 97.2202 55.9433 97.4254 56.8115 97.4254C57.3386 97.4254 57.8195 97.2651 58.2543 96.9433C58.6878 96.6214 59.0546 96.2656 59.3572 95.8721C59.7343 95.4082 60.0549 94.8726 60.3191 94.2654L66.1454 98.1225C65.5413 99.5155 64.7885 100.747 63.8831 101.819C63.0905 102.748 62.0915 103.588 60.8847 104.337C59.6778 105.087 58.2261 105.461 56.5294 105.461V105.46Z" fill="#FBBF46"/>
<rect x="2.99961" y="9.99961" width="96.0008" height="114.001" stroke="#FBBF46" stroke-width="5.99922"/>
<path d="M63.764 38.0768C63.764 45.074 58.0622 50.7695 51 50.7695C43.9377 50.7695 38.2359 45.074 38.2359 38.0768C38.2359 31.0797 43.9377 25.3841 51 25.3841C58.0622 25.3841 63.764 31.0797 63.764 38.0768Z" stroke="#FBBF46" stroke-width="5.99922"/>
<path d="M51.0005 53.7693L62.2431 47.3077L70.2794 61.1642L61.3768 59.3526L59.0369 67.6257L51.0005 53.7693Z" fill="#FBBF46"/>
<path d="M39.873 47.3079L51.1156 53.7694L43.0793 67.6258L40.2039 59.045L31.8367 61.1643L39.873 47.3079Z" fill="#FBBF46"/>
</svg>
