<svg width="150" height="135" viewBox="0 0 150 135" fill="none" xmlns="http://www.w3.org/2000/svg">
<path d="M71.1445 89.7616C70.0174 89.1065 69.1279 88.3462 68.4749 87.4802C67.8219 86.6142 67.2515 85.7429 66.7604 84.8645C66.2686 83.9872 65.7805 83.1638 65.2938 82.393C64.8076 81.6239 64.1988 81.0268 63.4695 80.6029C63.0052 80.333 62.4958 80.2384 61.9421 80.3181C61.3878 80.3989 60.878 80.5358 60.4132 80.7305C59.8454 80.9503 59.2981 81.2467 58.7761 81.6198L55.6217 75.2152C56.8102 74.2984 58.0919 73.6042 59.4664 73.1337C60.602 72.6942 61.9049 72.4455 63.3736 72.3896C64.8413 72.3331 66.3218 72.7388 67.8141 73.6062C68.9401 74.2607 69.8301 75.0227 70.4826 75.887C71.1356 76.753 71.7071 77.6249 72.1982 78.5033C72.6894 79.3817 73.1684 80.1999 73.6389 80.9598C74.1093 81.7197 74.7249 82.3208 75.488 82.7643C75.9512 83.0335 76.4556 83.1367 77.0017 83.0728C77.5467 83.0082 78.0505 82.8793 78.517 82.6841C79.0849 82.4644 79.6396 82.1522 80.1813 81.7474L83.3358 88.1519C82.0949 89.0815 80.8056 89.7914 79.4633 90.282C78.2931 90.7029 76.9874 90.9385 75.5448 90.988C74.1016 91.0386 72.6351 90.6294 71.1439 89.7627L71.1445 89.7616Z" fill="#FBBF46"/>
<line x1="44.6786" y1="95.4209" x2="44.6786" y2="38.5789" stroke="#FBBF46" stroke-width="5.99922"/>
<line y1="-2.99961" x2="62.8404" y2="-2.99961" transform="matrix(0.864659 0.502359 -0.497644 0.867381 41.4048 95.4209)" stroke="#FBBF46" stroke-width="5.99922"/>
<line y1="-2.99961" x2="62.8405" y2="-2.99961" transform="matrix(0.864563 -0.502525 0.497479 0.867476 95.6709 127)" stroke="#FBBF46" stroke-width="5.99922"/>
<line y1="-2.99961" x2="62.8404" y2="-2.99961" transform="matrix(0.864659 0.502359 -0.497644 0.867381 41.4048 42.3682)" stroke="#FBBF46" stroke-width="5.99922"/>
<line y1="-2.99961" x2="62.8405" y2="-2.99961" transform="matrix(0.864563 -0.502525 0.497479 0.867476 95.6709 73.9473)" stroke="#FBBF46" stroke-width="5.99922"/>
<line y1="-2.99961" x2="62.8404" y2="-2.99961" transform="matrix(0.864659 -0.502359 -0.497644 -0.867381 41.4048 38.5789)" stroke="#FBBF46" stroke-width="5.99922"/>
<line y1="-2.99961" x2="62.8405" y2="-2.99961" transform="matrix(0.864563 0.502525 0.497479 -0.867476 95.6709 7)" stroke="#FBBF46" stroke-width="5.99922"/>
<line y1="-2.99961" x2="62.8405" y2="-2.99961" transform="matrix(0.864563 0.502525 -0.497479 0.867476 61.7935 30.3682)" stroke="#FBBF46" stroke-width="5.99922"/>
<line y1="-2.99961" x2="62.8405" y2="-2.99961" transform="matrix(0.864563 0.502525 0.497479 -0.867476 75.5957 18.6843)" stroke="#FBBF46" stroke-width="5.99922"/>
<line x1="95.8065" y1="124.473" x2="95.8065" y2="69.5261" stroke="#FBBF46" stroke-width="5.99922"/>
<line x1="146.936" y1="95.4209" x2="146.936" y2="38.5789" stroke="#FBBF46" stroke-width="5.99922"/>
<path d="M127.037 50.8945V71.2629L114.49 78.9997V58.6314" stroke="#FBBF46" stroke-width="5.99922"/>
<path d="M47.6782 66.9998L11.606 66.9998" stroke="#FBBF46" stroke-width="5.99922"/>
<path d="M47.6783 53.7368L4.3916 53.7368" stroke="#FBBF46" stroke-width="5.99922"/>
<path d="M47.6781 80.2632L0 80.2632" stroke="#FBBF46" stroke-width="5.99922"/>
</svg>
